<?xml version="1.0" standalone="no"?>
<svg xmlns:xlink="http://www.w3.org/1999/xlink" id="wave" style="transform:rotate(180deg); transition: 0.3s" viewBox="0 0 1440 100" version="1.1" xmlns="http://www.w3.org/2000/svg"><defs><linearGradient id="sw-gradient-0" x1="0" x2="0" y1="1" y2="0"><stop stop-color="rgba(241, 213, 220, 1)" offset="0%"/><stop stop-color="rgba(241, 213, 220, 1)" offset="100%"/></linearGradient></defs><path style="transform:translate(0, 0px); opacity:1" fill="url(#sw-gradient-0)" d="M0,20L40,23.3C80,27,160,33,240,40C320,47,400,53,480,50C560,47,640,33,720,38.3C800,43,880,67,960,73.3C1040,80,1120,70,1200,63.3C1280,57,1360,53,1440,48.3C1520,43,1600,37,1680,35C1760,33,1840,37,1920,36.7C2000,37,2080,33,2160,33.3C2240,33,2320,37,2400,35C2480,33,2560,27,2640,23.3C2720,20,2800,20,2880,16.7C2960,13,3040,7,3120,13.3C3200,20,3280,40,3360,41.7C3440,43,3520,27,3600,31.7C3680,37,3760,63,3840,75C3920,87,4000,83,4080,81.7C4160,80,4240,80,4320,80C4400,80,4480,80,4560,80C4640,80,4720,80,4800,73.3C4880,67,4960,53,5040,46.7C5120,40,5200,40,5280,41.7C5360,43,5440,47,5520,45C5600,43,5680,37,5720,33.3L5760,30L5760,100L5720,100C5680,100,5600,100,5520,100C5440,100,5360,100,5280,100C5200,100,5120,100,5040,100C4960,100,4880,100,4800,100C4720,100,4640,100,4560,100C4480,100,4400,100,4320,100C4240,100,4160,100,4080,100C4000,100,3920,100,3840,100C3760,100,3680,100,3600,100C3520,100,3440,100,3360,100C3280,100,3200,100,3120,100C3040,100,2960,100,2880,100C2800,100,2720,100,2640,100C2560,100,2480,100,2400,100C2320,100,2240,100,2160,100C2080,100,2000,100,1920,100C1840,100,1760,100,1680,100C1600,100,1520,100,1440,100C1360,100,1280,100,1200,100C1120,100,1040,100,960,100C880,100,800,100,720,100C640,100,560,100,480,100C400,100,320,100,240,100C160,100,80,100,40,100L0,100Z"/></svg>