<?xml version="1.0" standalone="no"?>
<svg xmlns:xlink="http://www.w3.org/1999/xlink" id="wave" style="transform:rotate(180deg); transition: 0.3s" viewBox="0 0 1440 100" version="1.1" xmlns="http://www.w3.org/2000/svg"><defs><linearGradient id="sw-gradient-0" x1="0" x2="0" y1="1" y2="0"><stop stop-color="rgba(241, 213, 220, 1)" offset="0%"/><stop stop-color="rgba(241, 213, 220, 1)" offset="100%"/></linearGradient></defs><path style="transform:translate(0, 0px); opacity:1" fill="url(#sw-gradient-0)" d="M0,40L26.7,48.3C53.3,57,107,73,160,78.3C213.3,83,267,77,320,61.7C373.3,47,427,23,480,26.7C533.3,30,587,60,640,65C693.3,70,747,50,800,41.7C853.3,33,907,37,960,36.7C1013.3,37,1067,33,1120,36.7C1173.3,40,1227,50,1280,56.7C1333.3,63,1387,67,1440,60C1493.3,53,1547,37,1600,26.7C1653.3,17,1707,13,1760,13.3C1813.3,13,1867,17,1920,16.7C1973.3,17,2027,13,2080,20C2133.3,27,2187,43,2240,41.7C2293.3,40,2347,20,2400,25C2453.3,30,2507,60,2560,60C2613.3,60,2667,30,2720,18.3C2773.3,7,2827,13,2880,28.3C2933.3,43,2987,67,3040,65C3093.3,63,3147,37,3200,33.3C3253.3,30,3307,50,3360,61.7C3413.3,73,3467,77,3520,73.3C3573.3,70,3627,60,3680,50C3733.3,40,3787,30,3813,25L3840,20L3840,100L3813.3,100C3786.7,100,3733,100,3680,100C3626.7,100,3573,100,3520,100C3466.7,100,3413,100,3360,100C3306.7,100,3253,100,3200,100C3146.7,100,3093,100,3040,100C2986.7,100,2933,100,2880,100C2826.7,100,2773,100,2720,100C2666.7,100,2613,100,2560,100C2506.7,100,2453,100,2400,100C2346.7,100,2293,100,2240,100C2186.7,100,2133,100,2080,100C2026.7,100,1973,100,1920,100C1866.7,100,1813,100,1760,100C1706.7,100,1653,100,1600,100C1546.7,100,1493,100,1440,100C1386.7,100,1333,100,1280,100C1226.7,100,1173,100,1120,100C1066.7,100,1013,100,960,100C906.7,100,853,100,800,100C746.7,100,693,100,640,100C586.7,100,533,100,480,100C426.7,100,373,100,320,100C266.7,100,213,100,160,100C106.7,100,53,100,27,100L0,100Z"/></svg>